<?xml version="1.0" encoding="UTF-8" standalone="no"?>
<!-- Created with Inkscape (http://www.inkscape.org/) -->

<svg
   xmlns:dc="http://purl.org/dc/elements/1.1/"
   xmlns:cc="http://creativecommons.org/ns#"
   xmlns:rdf="http://www.w3.org/1999/02/22-rdf-syntax-ns#"
   xmlns:svg="http://www.w3.org/2000/svg"
   xmlns="http://www.w3.org/2000/svg"
   xmlns:xlink="http://www.w3.org/1999/xlink"
   xmlns:sodipodi="http://sodipodi.sourceforge.net/DTD/sodipodi-0.dtd"
   xmlns:inkscape="http://www.inkscape.org/namespaces/inkscape"
   width="114.30927mm"
   height="43.778454mm"
   viewBox="0 0 114.30926 43.778453"
   version="1.1"
   id="svg8"
   inkscape:version="0.92.5 (2060ec1f9f, 2020-04-08)"
   sodipodi:docname="logo.svg">
  <defs
     id="defs2" />
  <sodipodi:namedview
     id="base"
     pagecolor="#ffffff"
     bordercolor="#666666"
     borderopacity="1.0"
     inkscape:pageopacity="0.0"
     inkscape:pageshadow="2"
     inkscape:zoom="0.74653475"
     inkscape:cx="119.4091"
     inkscape:cy="184.60618"
     inkscape:document-units="mm"
     inkscape:current-layer="layer1"
     showgrid="false"
     inkscape:window-width="1848"
     inkscape:window-height="1016"
     inkscape:window-x="72"
     inkscape:window-y="27"
     inkscape:window-maximized="1"
     inkscape:snap-global="false"
     inkscape:snap-bbox="true"
     inkscape:bbox-paths="true"
     inkscape:snap-bbox-edge-midpoints="true"
     inkscape:snap-bbox-midpoints="true"
     inkscape:bbox-nodes="true"
     inkscape:object-paths="true"
     inkscape:snap-intersection-paths="true"
     inkscape:snap-smooth-nodes="true"
     inkscape:snap-midpoints="true"
     inkscape:snap-object-midpoints="true"
     inkscape:snap-center="true"
     inkscape:snap-text-baseline="true"
     inkscape:snap-page="true" />
  <metadata
     id="metadata5">
    <rdf:RDF>
      <cc:Work
         rdf:about="">
        <dc:format>image/svg+xml</dc:format>
        <dc:type
           rdf:resource="http://purl.org/dc/dcmitype/StillImage" />
        <dc:title />
      </cc:Work>
    </rdf:RDF>
  </metadata>
  <g
     inkscape:label="Capa 1"
     inkscape:groupmode="layer"
     id="layer1"
     transform="translate(-20.678802,-254.88745)">
    <path
       style="fill:none;stroke:#4d4d4d;stroke-width:0.66500002;stroke-linecap:butt;stroke-linejoin:miter;stroke-miterlimit:4;stroke-dasharray:none;stroke-opacity:1"
       d="m 66.004261,204.96368 v 5.67004"
       id="path1006"
       inkscape:connector-curvature="0" />
    <text
       xml:space="preserve"
       style="font-style:normal;font-weight:normal;font-size:13.97467709px;line-height:1.25;font-family:sans-serif;letter-spacing:0px;word-spacing:0px;fill:#666666;fill-opacity:1;stroke:none;stroke-width:0.74864346"
       x="64.861313"
       y="205.96095"
       id="text910-7"><tspan
         sodipodi:role="line"
         id="tspan908-0"
         x="64.861313"
         y="205.96095"
         style="font-style:normal;font-variant:normal;font-weight:normal;font-stretch:normal;font-family:arial;-inkscape-font-specification:arial;fill:#666666;fill-opacity:1;stroke-width:0.74864346"> he</tspan></text>
    <text
       xml:space="preserve"
       style="font-style:normal;font-weight:normal;font-size:17.02323151px;line-height:1.25;font-family:sans-serif;letter-spacing:0px;word-spacing:0px;fill:#4d4d4d;fill-opacity:1;stroke:none;stroke-width:0.91195887"
       x="35.552738"
       y="222.84154"
       id="text914-9"><tspan
         sodipodi:role="line"
         id="tspan912-3"
         x="35.552738"
         y="222.84154"
         style="fill:#4d4d4d;fill-opacity:1;stroke-width:0.91195887">h ve</tspan></text>
    <text
       xml:space="preserve"
       style="font-style:normal;font-weight:normal;font-size:15.79483032px;line-height:1.25;font-family:sans-serif;letter-spacing:0px;word-spacing:0px;fill:#4d4d4d;fill-opacity:1;stroke:none;stroke-width:0.84615159"
       x="77.958916"
       y="222.85895"
       id="text918-6"><tspan
         sodipodi:role="line"
         id="tspan916-0"
         x="77.958916"
         y="222.85895"
         style="fill:#4d4d4d;fill-opacity:1;stroke-width:0.84615159">m nd</tspan></text>
    <path
       style="opacity:1;fill:#4d4d4d;fill-opacity:1;stroke:none;stroke-width:0.0702962;stroke-linecap:round;stroke-linejoin:round;stroke-miterlimit:4;stroke-dasharray:none;stroke-opacity:1"
       d="m 48.878411,209.65167 c -0.586961,8e-5 -1.06273,0.47595 -1.062674,1.06292 2.49e-4,0.43072 0.260342,0.81874 0.658722,0.98251 -0.106042,0.39045 -0.642726,0.87733 -1.134876,1.13197 -1.199605,0.62066 -1.284957,3.51512 -1.284957,3.51512 0,0 0.21111,1.3718 0.587522,0.10971 0.376411,-1.26209 0.366464,-2.50157 0.597936,-2.79444 0.231471,-0.29287 0.464979,-0.14197 0.464979,0.0886 0,0.23061 -1.505719,8.32539 -1.328584,8.72395 0.177135,0.39856 0.774967,0.11068 0.774967,0.11068 0,0 0.708506,-5.1592 1.505615,-5.13707 0.797109,0.0221 0.75293,5.00411 0.75293,5.00411 0,0 0.354062,0.6864 0.819041,0 0.464982,-0.6864 -0.545708,-8.5663 -0.553374,-8.7903 -0.0077,-0.22401 0.01108,-0.37635 0.298915,-0.15492 0.287844,0.22141 0.817504,2.98819 0.817504,2.98819 -0.01877,-0.0563 0.424777,1.37 0.536421,0 0.133096,-1.63323 -0.48819,-3.21217 -0.854028,-3.54289 -0.365838,-0.33072 -0.281639,-0.22597 -0.676084,-0.404 -0.394444,-0.17802 -0.348928,-0.59102 -0.437558,-0.88434 0.356155,-0.18138 0.580439,-0.54724 0.580498,-0.94691 5.7e-5,-0.58706 -0.47586,-1.06297 -1.062915,-1.06292 z"
       id="path982"
       inkscape:connector-curvature="0"
       sodipodi:nodetypes="cccscszzscccczscszzccc" />
    <use
       x="0"
       y="0"
       xlink:href="#path982"
       id="use987"
       transform="translate(47.172775,0.28101306)"
       width="100%"
       height="100%" />
    <path
       style="opacity:1;fill:#666666;fill-opacity:1;stroke:none;stroke-width:0.05617325;stroke-linecap:round;stroke-linejoin:round;stroke-miterlimit:4;stroke-dasharray:none;stroke-opacity:1"
       d="m 66.036641,205.80494 c -0.469037,-6e-5 -0.849221,-0.38033 -0.849176,-0.84937 1.99e-4,-0.34419 0.208037,-0.65425 0.52638,-0.78512 -0.08474,-0.31201 -0.513598,-0.70107 -0.906872,-0.90455 -0.958597,-0.49597 -1.026801,-2.80891 -1.026801,-2.80891 0,0 0.168697,-1.0962 0.469485,-0.0877 0.300788,1.00853 0.292839,1.99899 0.477807,2.23302 0.184967,0.23403 0.371562,0.11345 0.371562,-0.0708 0,-0.18428 -1.203211,-6.65277 -1.061663,-6.97125 0.141547,-0.31849 0.619271,-0.0885 0.619271,-0.0885 0,0 0.566163,4.12269 1.203127,4.105 0.636965,-0.0177 0.601662,-3.99875 0.601662,-3.99875 0,0 0.282929,-0.5485 0.65449,0 0.371565,0.5485 -0.436071,6.84528 -0.442197,7.02427 -0.0062,0.17901 0.0089,0.30074 0.238861,0.1238 0.230014,-0.17693 0.653262,-2.38784 0.653262,-2.38784 -0.015,0.045 0.339437,-1.09476 0.428651,0 0.106356,1.3051 -0.39011,2.56682 -0.682449,2.8311 -0.292338,0.26427 -0.225056,0.18057 -0.540254,0.32283 -0.315198,0.14225 -0.278826,0.47228 -0.34965,0.70667 0.284601,0.14494 0.463825,0.4373 0.463872,0.75667 4.6e-5,0.46912 -0.380256,0.84941 -0.849368,0.84937 z"
       id="path982-6"
       inkscape:connector-curvature="0"
       sodipodi:nodetypes="cccscszzscccczscszzccc" />
    <path
       style="fill:#000000;fill-opacity:0;stroke:#4d4d4d;stroke-width:0.80405819;stroke-linecap:butt;stroke-linejoin:miter;stroke-miterlimit:4;stroke-dasharray:none;stroke-opacity:1"
       d="M 48.931493,210.7277 H 95.858119"
       id="path1004"
       inkscape:connector-curvature="0" />
    <text
       xml:space="preserve"
       style="font-style:normal;font-weight:normal;font-size:13.97467709px;line-height:1.25;font-family:sans-serif;letter-spacing:0px;word-spacing:0px;fill:#666666;fill-opacity:1;stroke:none;stroke-width:0.74864346"
       x="20.433153"
       y="264.89081"
       id="text910-0"><tspan
         sodipodi:role="line"
         id="tspan908-2"
         x="20.433153"
         y="264.89081"
         style="font-style:normal;font-variant:normal;font-weight:normal;font-stretch:normal;font-family:arial;-inkscape-font-specification:arial;fill:#666666;fill-opacity:1;stroke-width:0.74864346">the</tspan></text>
    <text
       xml:space="preserve"
       style="font-style:normal;font-weight:normal;font-size:17.02323151px;line-height:1.25;font-family:sans-serif;letter-spacing:0px;word-spacing:0px;fill:#4d4d4d;fill-opacity:1;stroke:none;stroke-width:0.91195887"
       x="26.655523"
       y="282.33908"
       id="text914-3"><tspan
         sodipodi:role="line"
         id="tspan912-7"
         x="26.655523"
         y="282.33908"
         style="fill:#4d4d4d;fill-opacity:1;stroke-width:0.91195887">hive</tspan></text>
    <text
       xml:space="preserve"
       style="font-style:normal;font-weight:normal;font-size:15.79483032px;line-height:1.25;font-family:sans-serif;letter-spacing:0px;word-spacing:0px;fill:#4d4d4d;fill-opacity:1;stroke:none;stroke-width:0.84615159"
       x="89.976318"
       y="282.35648"
       id="text918-5"><tspan
         sodipodi:role="line"
         id="tspan916-9"
         x="89.976318"
         y="282.35648"
         style="fill:#4d4d4d;fill-opacity:1;stroke-width:0.84615159">mind</tspan></text>
    <g
       id="g1127"
       transform="translate(-0.66138018,47.491646)">
      <path
         style="opacity:1;fill:#666666;fill-opacity:1;stroke:none;stroke-width:0.0702962;stroke-linecap:round;stroke-linejoin:round;stroke-miterlimit:4;stroke-dasharray:none;stroke-opacity:1"
         d="m 76.259417,230.02522 c -0.268204,0.5221 -0.06231,1.16277 0.459817,1.43096 0.383231,0.19661 0.847224,0.14258 1.17495,-0.13691 0.618165,0.30249 0.563548,0.58581 0.524641,0.82564 -0.03889,0.23981 -0.107021,0.46852 -0.02515,1.03061 0.08184,0.56211 2.279661,2.23631 2.528176,2.41976 0.248494,0.18344 0.716738,-0.0131 0.31111,-0.41704 -0.405583,-0.4039 -2.002734,-1.52457 -2.157449,-1.8643 -0.154724,-0.33973 0.0862,-0.47847 0.291265,-0.37311 0.205142,0.10535 6.791403,4.92398 7.152629,5.16841 0.489623,0.33134 0.760222,-0.40957 0.452586,-0.63873 0,0 -4.320887,-2.87949 -3.936943,-3.57839 0.384188,-0.69875 4.850797,1.50871 4.850797,1.50871 0.313544,0.14971 0.893537,-0.4697 0.374257,-0.72853 -0.519277,-0.25881 -7.868904,-3.42924 -8.07165,-3.52478 -0.202765,-0.0955 -0.131015,-0.41434 0.121957,-0.38786 0.361164,0.0378 2.639583,0.59383 2.90835,0.68958 0.268777,0.0957 0.784417,-0.16459 0.245157,-0.47713 -0.539277,-0.3125 -3.32994,-0.82638 -3.566649,-0.81063 -0.23671,0.0157 -0.461706,0.13296 -0.673077,0.37757 -0.21139,0.2446 -0.476284,0.19116 -0.956733,-0.0245 0.0014,-0.39968 -0.221509,-0.76637 -0.576977,-0.94906 -0.52215,-0.26832 -1.162942,-0.0625 -1.431168,0.4597 z"
         id="use1116"
         inkscape:connector-curvature="0"
         sodipodi:nodetypes="ccczzzzzzsccczzszzzzcccc"
         inkscape:transform-center-x="-5.0971913"
         inkscape:transform-center-y="3.2857771" />
      <path
         inkscape:transform-center-y="3.3261128"
         inkscape:transform-center-x="5.1462801"
         sodipodi:nodetypes="ccczzzzzzsccczzszzzzcccc"
         inkscape:connector-curvature="0"
         id="use1118"
         d="m 78.097473,229.91983 c -0.328062,-0.48672 -0.988605,-0.61528 -1.475338,-0.28719 -0.357033,0.24093 -0.533437,0.67346 -0.446605,1.09535 -0.563087,0.39568 -0.784964,0.21121 -0.9763,0.0615 -0.191323,-0.14971 -0.358838,-0.31968 -0.890736,-0.51901 -0.531912,-0.19935 -3.058419,0.91873 -3.338962,1.04798 -0.280533,0.12924 -0.334129,0.63423 0.215331,0.47366 0.549402,-0.16055 2.301354,-1.01934 2.673568,-0.99106 0.372239,0.0282 0.377595,0.30625 0.186418,0.43508 -0.191211,0.12891 -7.588568,3.57523 -7.976903,3.77382 -0.526366,0.26916 -0.0078,0.8635 0.341327,0.7045 0,0 4.606177,-2.39681 5.033308,-1.72344 0.426883,0.67352 -3.660828,3.52205 -3.660828,3.52205 -0.282345,0.20249 -0.01939,1.00928 0.457761,0.67918 0.477125,-0.33012 6.798677,-5.23997 6.98015,-5.37152 0.181459,-0.13157 0.42616,0.085 0.280981,0.29387 -0.207276,0.29818 -1.793078,2.02607 -2.00656,2.21536 -0.213481,0.18929 -0.234022,0.76657 0.299774,0.44484 0.533814,-0.32174 2.329689,-2.51872 2.430032,-2.73368 0.100351,-0.21497 0.106184,-0.46859 -0.0062,-0.77172 -0.112296,-0.30314 0.0622,-0.50943 0.482826,-0.82633 0.349467,0.19393 0.7782,0.17545 1.109648,-0.0478 0.486858,-0.32805 0.615535,-0.98867 0.287404,-1.47546 z"
         style="opacity:1;fill:#666666;fill-opacity:1;stroke:none;stroke-width:0.0702962;stroke-linecap:round;stroke-linejoin:round;stroke-miterlimit:4;stroke-dasharray:none;stroke-opacity:1" />
      <path
         inkscape:transform-center-y="-5.614549"
         inkscape:transform-center-x="-0.0082634955"
         sodipodi:nodetypes="ccczzzzzzsccczzszzzzcccc"
         inkscape:connector-curvature="0"
         id="path982-2"
         d="m 77.234937,231.56871 c 0.586684,-0.018 1.04766,-0.50826 1.029634,-1.09496 -0.01344,-0.43051 -0.285287,-0.81038 -0.688494,-0.96188 -0.03449,-0.68735 0.239877,-0.77668 0.468568,-0.85871 0.228691,-0.082 0.461779,-0.13311 0.91403,-0.4768 0.452252,-0.34371 0.853577,-3.07724 0.893825,-3.38349 0.04025,-0.30624 -0.358387,-0.62084 -0.51552,-0.0704 -0.157133,0.5504 -0.364789,2.49042 -0.587186,2.79024 -0.222396,0.29982 -0.460414,0.15614 -0.467473,-0.0743 -0.0071,-0.2305 1.021799,-8.32614 1.060869,-8.76054 0.05296,-0.58882 -0.726356,-0.46702 -0.777992,-0.0869 0,0 -0.428448,5.17474 -1.22586,5.17703 -0.797412,0.002 -1.027556,-4.97499 -1.027556,-4.97499 -0.02075,-0.34684 -0.84349,-0.55458 -0.818657,0.0251 0.02486,0.57966 0.807718,8.54558 0.822238,8.76924 0.01455,0.22367 -0.29917,0.31517 -0.398431,0.081 -0.141731,-0.33434 -0.757909,-2.59723 -0.804207,-2.87876 -0.0463,-0.28154 -0.523716,-0.60673 -0.536169,0.0164 -0.01246,0.62315 0.888546,3.31389 1.016891,3.5134 0.128346,0.19952 0.339802,0.33969 0.65616,0.40625 0.316357,0.0666 0.397806,0.32426 0.441609,0.84907 -0.350435,0.1922 -0.563413,0.56476 -0.551235,0.96424 0.01792,0.58679 0.50818,1.0479 1.094959,1.02988 z"
         style="opacity:1;fill:#666666;fill-opacity:1;stroke:none;stroke-width:0.0702962;stroke-linecap:round;stroke-linejoin:round;stroke-miterlimit:4;stroke-dasharray:none;stroke-opacity:1" />
    </g>
    <text
       xml:space="preserve"
       style="font-style:normal;font-weight:normal;font-size:13.97467709px;line-height:1.25;font-family:sans-serif;letter-spacing:0px;word-spacing:0px;fill:#666666;fill-opacity:1;stroke:none;stroke-width:0.74864346"
       x="110.44367"
       y="295.72495"
       id="text910-0-2"><tspan
         sodipodi:role="line"
         id="tspan908-2-8"
         x="110.44367"
         y="295.72495"
         style="font-style:normal;font-variant:normal;font-weight:normal;font-stretch:normal;font-family:arial;-inkscape-font-specification:arial;fill:#666666;fill-opacity:1;stroke-width:0.74864346">.xyz</tspan></text>
  </g>
</svg>
